<?xml version="1.0" standalone="no"?>
<!DOCTYPE svg PUBLIC "-//W3C//DTD SVG 20010904//EN"
 "http://www.w3.org/TR/2001/REC-SVG-20010904/DTD/svg10.dtd">
<svg version="1.0" xmlns="http://www.w3.org/2000/svg"
 width="581.000000pt" height="581.000000pt" viewBox="0 0 581.000000 581.000000"
 preserveAspectRatio="xMidYMid meet">
<metadata>
Created by potrace 1.14, written by Peter Selinger 2001-2017
</metadata>
<g transform="translate(0.000000,581.000000) scale(0.100000,-0.100000)"
fill="#000000" stroke="none">
<path d="M643 4582 c-59 -24 -109 -72 -135 -128 l-22 -49 0 -870 0 -870 29
-53 c39 -71 95 -111 181 -127 10 -2 103 -4 207 -4 l187 -1 0 -302 0 -303 303
303 302 302 182 0 182 0 1 633 c0 347 2 641 4 652 41 202 178 350 366 396 42
10 173 13 565 14 l510 1 0 124 c0 108 -3 130 -22 165 -28 52 -67 89 -123 114
-44 20 -60 20 -1360 20 -1212 0 -1318 -1 -1357 -17z"/>
<path d="M2502 3928 c-53 -9 -91 -29 -131 -70 -70 -70 -66 -10 -68 -968 -2
-604 0 -876 8 -900 18 -60 61 -111 118 -144 l55 -30 815 0 815 0 303 -303 303
-303 1 213 c0 116 1 252 2 302 l2 90 205 1 c183 1 210 3 250 21 59 27 106 78
129 139 17 46 18 100 17 909 -2 806 -3 863 -20 903 -23 53 -96 118 -150 134
-46 12 -2581 19 -2654 6z"/>
</g>
</svg>
